
<svg xmlns="http://www.w3.org/2000/svg" fill="none" stroke-linecap="square" stroke-miterlimit="10" viewBox="0 0 600 371"><path fill="#fff" d="M0 0h600v371H0V0z"/><path stroke="#333" stroke-linecap="butt" d="M48.5 332.5h533"/><path stroke="#ccc" stroke-linecap="butt" d="M48.5 262.5h533M48.5 192.5h533M48.5 122.5h533M48.5 51.5h533"/><clipPath id="a"><path d="M48.5 52h533v280.4h-533V52z"/></clipPath><path d="M130 332H92V156c0-1.1.9-2 2-2h34a2 2 0 012 2z" clip-path="url(#a)"/><path fill="#4285f4" d="M130 332H92V156c0-1.1.9-2 2-2h34a2 2 0 012 2z" clip-path="url(#a)"/><path d="M253 332h-38V85c0-1.1.9-2 2-2h34a2 2 0 012 2z" clip-path="url(#a)"/><path fill="#4285f4" d="M253 332h-38V85c0-1.1.9-2 2-2h34a2 2 0 012 2z" clip-path="url(#a)"/><path d="M375 332h-38v-62c0-1.1.9-2 2-2h34a2 2 0 012 2z" clip-path="url(#a)"/><path fill="#4285f4" d="M375 332h-38v-62c0-1.1.9-2 2-2h34a2 2 0 012 2z" clip-path="url(#a)"/><path d="M498 332h-38v-61c0-1.1.9-2 2-2h34a2 2 0 012 2z" clip-path="url(#a)"/><path fill="#4285f4" d="M498 332h-38v-61c0-1.1.9-2 2-2h34a2 2 0 012 2z" clip-path="url(#a)"/><path d="M170 332h-38V54c0-1.1.9-2 2-2h34a2 2 0 012 2z" clip-path="url(#a)"/><path fill="#ea4335" d="M170 332h-38V54c0-1.1.9-2 2-2h34a2 2 0 012 2z" clip-path="url(#a)"/><path d="M293 332h-38V54c0-1.1.9-2 2-2h34a2 2 0 012 2z" clip-path="url(#a)"/><path fill="#ea4335" d="M293 332h-38V54c0-1.1.9-2 2-2h34a2 2 0 012 2z" clip-path="url(#a)"/><path d="M415 332h-38V54c0-1.1.9-2 2-2h34a2 2 0 012 2z" clip-path="url(#a)"/><path fill="#ea4335" d="M415 332h-38V54c0-1.1.9-2 2-2h34a2 2 0 012 2z" clip-path="url(#a)"/><path d="M538 332h-38V54c0-1.1.9-2 2-2h34a2 2 0 012 2z" clip-path="url(#a)"/><path fill="#ea4335" d="M538 332h-38V54c0-1.1.9-2 2-2h34a2 2 0 012 2z" clip-path="url(#a)"/><path fill="#000" d="M19 332.2q0-1.5.4-2.4.3-1 .9-1.5.6-.5 1.5-.5.7 0 1.2.3.6.3 1 .8.3.5.5 1.3t.1 2q0 1.5-.3 2.5-.3.9-.9 1.4-.6.5-1.6.5-1.2 0-2-.9-.8-1-.8-3.5zm1.1 0q0 2.1.5 2.8.5.7 1.2.7.8 0 1.3-.7t.5-2.8q0-2.1-.5-2.8-.5-.7-1.3-.7-.7 0-1.1.6-.6.8-.6 3zm6.5 4.3v-1.2h1.2v1.2h-1.2zm2.4-4.3q0-1.5.4-2.4.3-1 .9-1.5.6-.5 1.5-.5.7 0 1.2.3.6.3 1 .8.3.5.5 1.3t.1 2q0 1.5-.3 2.5-.3.9-.9 1.4-.6.5-1.6.5-1.2 0-2-.9-.8-1-.8-3.5zm1.1 0q0 2.1.5 2.8.5.7 1.2.7.8 0 1.3-.7t.5-2.8q0-2.1-.5-2.8-.5-.7-1.3-.7-.7 0-1.1.6-.6.8-.6 3zm6 0q0-1.5.3-2.4.3-1 .9-1.5.6-.5 1.5-.5.7 0 1.2.3.6.3 1 .8.3.5.5 1.3t.1 2q0 1.5-.3 2.5-.3.9-.9 1.4-.6.5-1.6.5-1.2 0-2-.9-.8-1-.8-3.5zm1 0q0 2.1.5 2.8.5.7 1.2.7.8 0 1.3-.7t.5-2.8q0-2.1-.5-2.8-.5-.7-1.3-.7-.7 0-1.1.6-.6.8-.6 3zM19 262q0-1.5.4-2.4.3-1 .9-1.4.6-.5 1.5-.5.7 0 1.2.3.6.3 1 .8l.5 1.2q.2.7.1 2 0 1.6-.3 2.5-.3 1-.9 1.5-.6.5-1.6.5-1.2 0-2-1t-.8-3.4zm1.1 0q0 2.2.5 2.9.5.7 1.2.7.8 0 1.3-.7t.5-2.8q0-2.1-.5-2.8-.5-.7-1.3-.7-.7 0-1.1.6-.6.8-.6 2.9zm6.5 4.3v-1.2h1.2v1.2h-1.2zm8-1v1h-5.7l.1-.7.7-1.2 1.4-1.3q1.4-1.1 1.9-1.8t.5-1.3q0-.6-.5-1-.4-.4-1.1-.4-.8 0-1.2.4-.5.5-.5 1.3l-1-.1q0-1.2.7-1.9.8-.6 2-.6t2 .7.7 1.7l-.2 1q-.2.5-.7 1-.5.6-1.7 1.5l-1.2 1.1-.4.6h4.2zm1.4-1.2l1.2-.1q0 .8.5 1.2.5.4 1.1.4.8 0 1.3-.6t.5-1.5q0-.9-.5-1.4-.5-.6-1.3-.6-.5 0-1 .3l-.6.6-1-.1.9-4.5h4.2v1H38l-.4 2.4q.7-.6 1.6-.6 1 0 1.9.8.7.8.7 2t-.6 2q-.9 1-2.3 1-1.2 0-2-.6-.6-.7-.8-1.7zM19 192q0-1.6.4-2.5.3-1 .9-1.4.6-.5 1.5-.5.7 0 1.2.2.6.3 1 .9l.5 1.2q.2.7.1 2 0 1.6-.3 2.5-.3 1-.9 1.4-.6.5-1.6.5-1.2 0-2-.9-.8-1-.8-3.5zm1.1 0q0 2 .5 2.8.5.7 1.2.7.8 0 1.3-.7t.5-2.9q0-2-.5-2.8-.5-.7-1.3-.7-.7 0-1.1.6-.6.8-.6 3zm6.5 4.2V195h1.2v1.2h-1.2zm2.4-2.3h1.2q0 .8.5 1.2.5.4 1.1.4.8 0 1.3-.6t.5-1.5q0-1-.5-1.4-.5-.6-1.3-.6-.5 0-1 .3l-.6.5h-1l.9-4.5h4.2v1H31l-.4 2.3q.7-.5 1.6-.5 1 0 1.9.8.7.7.7 2 0 1.1-.6 2-.9 1-2.3 1-1.2 0-2-.6-.6-.7-.8-1.8zm7-2q0-1.5.4-2.4.3-1 .9-1.4.6-.5 1.5-.5.7 0 1.2.2.6.3 1 .9l.5 1.2q.2.7.1 2 0 1.6-.3 2.5-.3 1-.9 1.4-.6.5-1.6.5-1.2 0-2-.9-.8-1-.8-3.5zm1.1 0q0 2.2.5 2.9.5.7 1.2.7.8 0 1.3-.7t.5-2.9q0-2-.5-2.8-.5-.7-1.3-.7-.7 0-1.1.6-.6.8-.6 3zM19 121.8q0-1.5.4-2.4.3-1 .9-1.5.6-.5 1.5-.5.7 0 1.2.3.6.3 1 .8.3.5.5 1.3t.1 2q0 1.5-.3 2.5-.3.9-.9 1.4-.6.5-1.6.5-1.2 0-2-.9-.8-1-.8-3.5zm1.1 0q0 2.1.5 2.8.5.7 1.2.7.8 0 1.3-.7t.5-2.8q0-2.1-.5-2.8-.5-.7-1.3-.7-.7 0-1.1.6-.6.8-.6 3zm6.5 4.3v-1.2h1.2v1.2h-1.2zm2.5-7.5v-1h5.6v.8q-.8.9-1.7 2.3l-1.2 3q-.3 1-.4 2.4h-1q0-1 .3-2.5.4-1.4 1.1-2.8.7-1.3 1.5-2.2h-4.2zm7 5.2h1q.2.7.6 1.1.5.4 1.1.4.8 0 1.3-.5.5-.6.5-1.6 0-.9-.5-1.4-.5-.5-1.3-.5l-1 .2-.6.6-1-.1.9-4.4h4.2v1H38l-.4 2.3q.7-.5 1.6-.5 1 0 1.9.7.7.8.7 2t-.6 2q-.9 1.1-2.3 1.1-1.2 0-2-.7-.6-.6-.8-1.7zM23 56h-1v-6.8l-1 .7-1.1.6v-1l1.5-1q.7-.6 1-1.2h.6v8.6zm3.6 0v-1.3h1.2V56h-1.2zm2.5-4.3q0-1.5.3-2.5t.9-1.4q.6-.5 1.5-.5.7 0 1.3.3.5.3.8.8.4.5.6 1.3t.1 2q0 1.5-.3 2.4-.3 1-.9 1.5-.6.5-1.6.5-1.2 0-2-1-.7-1-.7-3.4zm1 0q0 2 .5 2.8t1.2.7q.8 0 1.3-.7t.5-2.8q0-2.1-.5-2.8-.5-.7-1.3-.7-.7 0-1.1.6-.6.8-.6 2.9zm6 0q0-1.5.3-2.5t.9-1.4q.6-.5 1.5-.5.7 0 1.3.3.5.3.8.8.4.5.6 1.3t.1 2q0 1.5-.3 2.4-.3 1-.9 1.5-.6.5-1.6.5-1.2 0-2-1-.7-1-.7-3.4zm1 0q0 2 .5 2.8t1.2.7q.8 0 1.3-.7t.5-2.8q0-2.1-.5-2.8-.5-.7-1.3-.7-.7 0-1.1.6-.6.8-.6 2.9zM116.7 349.4V341h4.5q.6.1 1 .4.5.3.8.9.2.5.2 1.1 0 1.1-.7 1.9-.7.8-2.5.8h-2.2v3.5h-1.1zm1.1-4.4h2.2q1.1 0 1.6-.5.5-.4.5-1.1 0-.6-.3-1l-.7-.5H117.8v3zm6.7 4.4v-6.2h1v1q.3-.7.6-.9.3-.2.7-.2.5 0 1 .3l-.3 1-.7-.2q-.4 0-.7.2l-.3.6q-.2.5-.2 1.2v3.3h-1zm8.3-2l1 .2q-.2 1-.9 1.5t-1.8.5q-1.3 0-2.1-.9-.8-.8-.8-2.3 0-1.6.8-2.4.8-1 2-1 1.3 0 2.1 1 .8.8.8 2.3v.3h-4.6q0 1 .5 1.6.6.5 1.3.5.6 0 1-.3.5-.3.7-1zm-3.5-1.7h3.5q0-.8-.4-1.1-.5-.7-1.3-.7-.7 0-1.2.5t-.6 1.3zm6.5 3.7V344h-1v-.8h1v-.6-1l.6-.6q.4-.3 1.1-.3l1 .1-.2 1-.6-.1q-.5 0-.7.2-.2.2-.2.8v.5h1.3v.8h-1.3v5.5h-1zm2.7-7.3v-1.2h1.1v1.2h-1zm0 7.3v-6.2h1.1v6.2h-1zm2.3 0l2.3-3.2-2.1-3h1.3l1 1.5.4.7.5-.7 1-1.5h1.3l-2.2 3 2.3 3.3h-1.2l-1.3-2-.4-.5-1.6 2.4h-1.3zM243.2 349.4V341h4.5l1.2.7q.7.6 1 1.5.4.9.4 2 0 1-.3 1.7-.2.8-.5 1.3t-.8.8l-1 .4q-.6.2-1.4.2h-3.1zm1.1-1h1.8l1.4-.1q.5-.2.7-.5.5-.4.7-1 .2-.7.2-1.7 0-1.4-.4-2-.5-.8-1.1-1-.5-.2-1.5-.2h-1.8v6.5zm7.7 1v-6.2h1v1q.7-1.1 2-1.1l1 .2q.5.2.7.5.3.4.3.8v4.9h-1v-3.8-1q0-.3-.5-.5-.3-.2-.8-.2-.6 0-1.1.4-.5.5-.5 1.6v3.5h-1zm11.1-.7l-1.1.7-1.2.2q-1 0-1.6-.5-.5-.5-.5-1.3l.2-.8q.2-.4.5-.6l.8-.4 1-.1 1.8-.4v-.3q0-.6-.3-.9-.4-.3-1.2-.3-.7 0-1 .2-.4.3-.6 1l-1-.2q.1-.7.4-1 .4-.5 1-.7.6-.2 1.4-.2.8 0 1.3.2t.7.4l.3.8v2.3l.1 1.9.3.8h-1l-.3-.8zm0-2.4q-.7.3-1.8.4l-1 .2-.3.4q-.2.2-.2.5 0 .4.3.7.4.3 1 .3t1-.3q.5-.3.7-.7.2-.4.2-1v-.5zM344.1 349.4V341h1.8l2 6 .4 1.3.4-1.4 2.1-6h1.5v8.6h-1v-7.1l-2.6 7.1h-1l-2.5-7.3v7.3h-1zm14-.7l-1.1.7-1.2.2q-1 0-1.6-.5-.5-.5-.5-1.3l.2-.8q.2-.4.5-.6l.8-.4 1-.1 1.8-.4v-.3q0-.6-.3-.9-.4-.3-1.2-.3-.7 0-1 .2-.4.3-.6 1l-1-.2q.1-.7.4-1 .4-.5 1-.7.6-.2 1.4-.2.8 0 1.3.2t.7.4l.3.8v2.3l.1 1.9.3.8h-1l-.3-.8zm0-2.4q-.7.3-1.8.4l-1 .2-.3.4q-.2.2-.2.5 0 .4.3.7.4.3 1 .3t1-.3q.5-.3.7-.7.2-.4.2-1v-.5zm3-4.2v-1.2h1v1.2h-1zm0 7.3v-6.2h1v6.2h-1zm3 0V341h1v8.5h-1zm9.2-3l1.1.3q-.3 1.4-1.2 2.2-1 .7-2.3.7-1.4 0-2.3-.6t-1.3-1.6q-.5-1-.5-2.3 0-1.4.6-2.4.5-1 1.4-1.5 1-.5 2.1-.5 1.3 0 2.2.7.9.6 1.2 1.8l-1.1.3q-.3-1-.9-1.4-.6-.4-1.4-.4-1 0-1.7.5-.6.4-1 1.2-.2.8-.2 1.7 0 1 .3 1.9.4.8 1 1.2.7.4 1.5.4 1 0 1.6-.5.7-.6 1-1.7zm2.7 3v-6.2h1v1q.3-.7.6-.9l.7-.2q.6 0 1.1.3l-.4 1q-.3-.2-.7-.2-.4 0-.7.2l-.3.6q-.2.5-.2 1.2v3.3h-1zm8.1-.7l-1.1.7-1.2.2q-1 0-1.6-.5-.5-.5-.5-1.3l.2-.8q.2-.4.5-.6l.8-.4 1-.1 1.8-.4v-.3q0-.6-.3-.9-.4-.3-1.2-.3-.7 0-1 .2-.4.3-.6 1l-1-.2q.1-.7.4-1 .4-.5 1-.7.6-.2 1.4-.2.8 0 1.3.2t.7.4l.3.8v2.3l.1 1.9.3.8h-1l-.3-.8zm0-2.4q-.7.3-1.8.4l-1 .2-.3.4q-.2.2-.2.5 0 .4.3.7.4.3 1 .3t1-.3q.5-.3.7-.7.2-.4.2-1v-.5zm4 3.1l-1.8-6.2h1l1 3.6.4 1.4.4-1.3 1-3.7h1l1 3.6.3 1.2.3-1.2 1.1-3.6h1l-2 6.3h-1l-1-3.8-.3-1-1.2 4.7h-1.1zm8 0V341h1v8.5h-1zm7.2-2l1 .2q-.2 1-.9 1.5t-1.7.5q-1.4 0-2.2-.9-.8-.8-.8-2.3 0-1.6.8-2.4.8-1 2-1 1.3 0 2.1 1 .8.8.8 2.3v.3h-4.6q0 1 .6 1.6.5.5 1.3.5.5 0 1-.3.4-.3.6-1zm-3.5-1.7h3.5q0-.8-.4-1.1-.5-.7-1.3-.7-.7 0-1.2.5t-.6 1.3zm6.2 3.7v-6.2h1v1q.3-.7.6-.9l.7-.2q.6 0 1.1.3l-.4 1q-.3-.2-.7-.2-.4 0-.7.2l-.3.6q-.2.5-.2 1.2v3.3h-1zM473.1 349.4V341h1.2v7.5h4.2v1h-5.4zm6.6-3q0-1.8 1-2.6.7-.7 1.9-.7t2 .8q.9.9.9 2.3 0 1.2-.4 2-.3.6-1 1t-1.5.4q-1.3 0-2.1-.8-.8-.9-.8-2.5zm1 0q0 1.1.6 1.7.5.6 1.3.6t1.3-.6q.5-.6.5-1.8 0-1.1-.5-1.7-.6-.6-1.3-.6-.8 0-1.3.6-.6.5-.6 1.7zm6.1 3.6l1 .1q.1.5.4.7.4.3 1.1.3.7 0 1.1-.3.4-.3.6-.8v-1.4q-.6.8-1.7.8-1.2 0-2-.9-.7-1-.7-2.2 0-.9.4-1.6.3-.8.9-1.2.6-.4 1.4-.4 1.1 0 1.9.9v-.8h1v5.4q0 1.5-.4 2-.3.7-.9 1-.6.4-1.6.4t-1.8-.5-.7-1.5zm1-3.8q0 1.2.4 1.8t1.2.6 1.2-.6q.5-.6.5-1.7 0-1.2-.5-1.8-.5-.5-1.2-.5t-1.2.5q-.5.6-.5 1.7zm6.4 3.2V341h4.5q.7.1 1 .4.5.3.8.9.2.5.2 1.1 0 1.1-.7 1.9-.7.8-2.5.8h-2.2v3.5h-1.1zm1.1-4.5h2.2q1.1 0 1.6-.4t.5-1.1q0-.6-.3-1l-.7-.5h-3.3v3zm10.8 3.8l-1.1.7-1.2.2q-1 0-1.6-.5t-.5-1.3l.2-.8q.2-.4.5-.6l.8-.4 1-.1 1.8-.4v-.3q0-.6-.3-.9-.4-.3-1.2-.3-.7 0-1 .2-.4.3-.6 1l-1-.2q.1-.7.4-1 .4-.5 1-.7.6-.2 1.4-.2t1.3.2.7.4l.3.8v2.3l.1 1.9.3.7h-1l-.3-.7zm0-2.4q-.7.3-1.8.4l-1 .2-.3.4q-.2.2-.2.5 0 .4.3.7.4.3 1 .3t1-.3q.5-.3.7-.7.2-.4.2-1v-.5zm3 3.1v-6.2h.9v1q.3-.7.6-.9l.7-.2q.6 0 1.1.3l-.3 1-.8-.2q-.4 0-.7.2l-.3.6q-.2.5-.2 1.2v3.2h-1zm3.5-1.8l1-.2q.2.7.5 1 .5.3 1.2.3t1-.3q.4-.3.4-.7 0-.3-.3-.5-.2-.2-1-.4l-1.7-.5q-.4-.2-.7-.6l-.2-.8.2-.8q.2-.4.5-.6l.7-.3.9-.1q.7 0 1.3.2.5.2.8.6.3.3.4 1h-1q-.1-.4-.5-.7-.3-.3-1-.3t-1 .3q-.3.2-.3.6l.1.3.4.3 1 .3 1.5.5.7.5q.3.4.3 1 0 .5-.3 1-.3.4-.9.6-.6.3-1.3.3-1.2 0-1.9-.5-.6-.5-.8-1.5zm10.7-.2l1.1.2q-.3 1-1 1.5t-1.7.5q-1.4 0-2.2-.9-.8-.8-.8-2.3 0-1.6.8-2.4.8-1 2.1-1 1.2 0 2 1 .8.8.8 2.3v.3h-4.6q0 1 .6 1.6.5.5 1.3.5.5 0 1-.3.4-.3.6-1zm-3.5-1.7h3.5q0-.8-.4-1.1-.5-.7-1.3-.7-.7 0-1.2.5t-.6 1.3z"/><path fill="#4285f4" d="M223.5 20.6c0-.6.4-1 1-1h10c.6 0 1 .4 1 1v10c0 .5-.4 1-1 1h-10a1 1 0 01-1-1z"/><path fill="#1a1a1a" d="M244.3 29.6v-6.3h1v1q.3-.7.6-.9.3-.2.7-.2.5 0 1 .3l-.3 1-.8-.2-.6.2q-.3.2-.4.6-.2.5-.2 1.2v3.2h-1zm8.2-2h1.1q-.2 1-1 1.6t-1.7.5q-1.4 0-2.2-.9-.8-.8-.8-2.3 0-1.6.8-2.4.9-1 2.1-1 1.3 0 2 1 .9.8.9 2.3v.3H249q0 1 .6 1.6.5.5 1.3.5.6 0 1-.3t.6-1zm-3.4-1.8h3.5q-.1-.7-.4-1.1-.5-.6-1.3-.6t-1.3.4q-.5.5-.5 1.3zm6 4.3l1 .1q0 .5.4.7.4.3 1 .3.8 0 1.2-.3.4-.3.5-.8l.1-1.4q-.7.9-1.7.9-1.3 0-2-1t-.7-2.2q0-.9.3-1.6.3-.8 1-1.2.5-.4 1.4-.4 1 0 1.8.9v-.8h1v5.4q0 1.5-.3 2-.3.7-1 1-.6.4-1.5.4-1.1 0-1.8-.5T255 30zm.9-3.8q0 1.3.5 1.8.4.6 1.2.6.7 0 1.2-.6t.5-1.7q0-1.2-.5-1.8-.5-.5-1.2-.5t-1.2.5q-.5.6-.5 1.7zm10.5 1.3h1.1q-.2 1-1 1.6t-1.7.5q-1.4 0-2.2-.9-.8-.8-.8-2.3 0-1.6.8-2.4.9-1 2.1-1 1.3 0 2 1 .9.8.9 2.3v.3H263q0 1 .6 1.6.5.5 1.3.5.6 0 1-.3t.6-1zm-3.4-1.8h3.5q-.1-.7-.4-1.1-.5-.6-1.3-.6t-1.3.4q-.5.5-.5 1.3zm5.5 3.8l2.3-3.3-2.1-3h1.3l1 1.5.4.7.4-.7 1-1.5h1.3l-2.1 3 2.3 3.3h-1.3l-1.3-2-.3-.5-1.6 2.4h-1.3zm6.7 2.3v-8.6h1v.8l.7-.7 1-.2q.9 0 1.5.4t.9 1.2q.3.7.3 1.6 0 1-.4 1.7-.3.8-1 1.2-.6.4-1.3.4l-1-.2-.7-.6v3h-1zm1-5.4q0 1.2.4 1.8.5.5 1.2.5t1.2-.6.5-1.8q0-1.2-.5-1.8-.5-.6-1.1-.6-.7 0-1.2.6-.6.7-.6 1.9zm11.2 2v1H282v-.7q.3-.6.8-1.1l1.4-1.3 1.9-1.8q.5-.7.5-1.3 0-.6-.5-1-.5-.5-1.2-.5t-1.2.5q-.4.4-.5 1.2h-1q0-1.3.8-2 .7-.6 2-.6 1.2 0 2 .7t.6 1.7l-.2 1q-.2.5-.7 1L285 27l-1.2 1-.5.6h4.2zm1.6 1.6l1 .1q0 .5.4.7.4.3 1 .3.8 0 1.2-.3.4-.3.5-.8l.1-1.4q-.7.8-1.7.8-1.3 0-2-.9-.7-1-.7-2.2 0-.9.3-1.6.3-.8 1-1.2.5-.4 1.4-.4 1 0 1.8.9v-.8h1v5.4q0 1.5-.3 2-.3.7-1 1-.6.4-1.5.4-1.1 0-1.8-.5T289 30zm.9-3.8q0 1.2.5 1.8.4.6 1.2.6.7 0 1.2-.6t.5-1.7q0-1.2-.5-1.8-.5-.5-1.2-.5t-1.2.5q-.5.6-.5 1.7zm6 .1q0-1.7.9-2.5.8-.7 2-.7t2 .8q.8.9.8 2.3 0 1.2-.3 2t-1 1q-.8.4-1.6.4-1.3 0-2.1-.8-.8-.9-.8-2.5zm1 0q0 1.2.5 1.8.5.6 1.3.6t1.3-.6.5-1.8q0-1.1-.5-1.7-.5-.6-1.3-.6t-1.3.6q-.5.5-.5 1.7z"/><path fill="#ea4335" d="M318.5 20.6c0-.6.4-1 1-1h10c.6 0 1 .4 1 1v10c0 .5-.4 1-1 1h-10a1 1 0 01-1-1z"/><path fill="#1a1a1a" d="M339.3 29.6v-6.3h1v1q.3-.7.6-.9.3-.2.7-.2.5 0 1 .3l-.3 1-.8-.2-.6.2q-.3.2-.4.6-.2.5-.2 1.2v3.2h-1zm8.2-2h1.1q-.2 1-1 1.6t-1.7.5q-1.4 0-2.2-.9-.8-.8-.8-2.3 0-1.6.8-2.4.9-1 2.1-1 1.3 0 2 1 .9.8.9 2.3v.3H344q0 1 .6 1.6.5.5 1.3.5.6 0 1-.3t.6-1zm-3.4-1.8h3.5q-.1-.7-.4-1.1-.5-.6-1.3-.6t-1.3.4q-.5.5-.5 1.3zm6 4.3l1 .1q0 .5.4.7.4.3 1 .3.8 0 1.2-.3.4-.3.5-.8l.1-1.4q-.7.9-1.7.9-1.3 0-2-1t-.7-2.2q0-.9.3-1.6.3-.8 1-1.2.5-.4 1.4-.4 1 0 1.8.9v-.8h1v5.4q0 1.5-.3 2-.3.7-1 1-.6.4-1.5.4-1.1 0-1.8-.5T350 30zm.9-3.8q0 1.3.5 1.8.4.6 1.2.6.7 0 1.2-.6t.5-1.7q0-1.2-.5-1.8-.5-.5-1.2-.5t-1.2.5q-.5.6-.5 1.7zm10.5 1.3h1.1q-.2 1-1 1.6t-1.7.5q-1.4 0-2.2-.9-.8-.8-.8-2.3 0-1.6.8-2.4.9-1 2.1-1 1.3 0 2 1 .9.8.9 2.3v.3H358q0 1 .6 1.6.5.5 1.3.5.6 0 1-.3t.6-1zm-3.4-1.8h3.5q-.1-.7-.4-1.1-.5-.6-1.3-.6t-1.3.4q-.5.5-.5 1.3zm5.5 3.8l2.3-3.3-2.1-3h1.3l1 1.5.4.7.4-.7 1-1.5h1.3l-2.1 3 2.3 3.3h-1.3l-1.3-2-.3-.5-1.6 2.4h-1.3zm6.7 2.3v-8.6h1v.8l.7-.7 1-.2q.9 0 1.5.4t.9 1.2q.3.7.3 1.6 0 1-.4 1.7-.3.8-1 1.2-.6.4-1.3.4l-1-.2-.7-.6v3h-1zm1-5.4q0 1.2.4 1.8.5.5 1.2.5t1.2-.6.5-1.8q0-1.2-.5-1.8-.5-.6-1.1-.6-.7 0-1.2.6-.6.7-.6 1.9z"/></svg>